<?xml version="1.0" standalone="no"?>
<!DOCTYPE svg PUBLIC "-//W3C//DTD SVG 20010904//EN"
 "http://www.w3.org/TR/2001/REC-SVG-20010904/DTD/svg10.dtd">
<svg version="1.0" xmlns="http://www.w3.org/2000/svg"
 width="600.000000pt" height="260.000000pt" viewBox="0 0 600.000000 260.000000"
 preserveAspectRatio="xMidYMid meet">

<g transform="translate(0.000000,260.000000) scale(0.100000,-0.100000)"
fill="#000000" stroke="none">
<path d="M1240 2593 c-327 -15 -622 -146 -855 -378 -185 -185 -300 -400 -356
-668 -28 -131 -30 -350 -5 -479 47 -245 167 -482 333 -658 174 -185 371 -301
626 -368 94 -25 117 -27 302 -27 159 0 216 4 280 18 74 17 119 37 85 37 -7 0
-10 3 -7 6 4 4 13 1 21 -5 10 -8 16 -9 21 -1 3 5 2 10 -4 10 -6 0 -8 7 -5 15
4 8 1 15 -5 15 -6 0 -11 -5 -11 -11 0 -5 -4 -7 -10 -4 -5 3 -36 -1 -69 -10
-101 -26 -264 -38 -339 -25 -152 26 -260 123 -357 321 l-38 76 -56 11 c-112
24 -203 98 -253 208 -34 73 -32 198 5 274 14 30 42 71 62 91 l35 37 -16 43
c-20 57 -20 162 -1 218 l16 45 -35 47 c-48 65 -66 122 -66 204 -1 101 29 172
102 245 57 57 57 58 62 127 9 130 79 237 190 292 37 19 70 45 87 68 44 60 118
123 179 151 53 25 66 27 177 26 78 -1 155 -9 219 -22 74 -16 103 -18 113 -10
11 8 12 7 7 -8 -5 -18 -5 -18 6 -1 13 20 4 41 -15 33 -8 -3 -15 0 -17 5 -5 15
-117 37 -218 44 -47 3 -96 7 -110 8 -14 1 -50 1 -80 0z"/>
<path d="M1681 2226 c-13 -14 -20 -29 -17 -34 3 -6 -1 -12 -9 -15 -24 -10 -48
-113 -42 -181 6 -71 33 -146 53 -146 11 0 14 16 13 70 -1 38 -5 68 -9 65 -5
-3 -8 3 -7 14 0 11 5 17 9 15 4 -3 8 4 8 16 0 13 -4 19 -11 14 -7 -4 -7 1 1
16 7 13 10 47 8 81 -3 48 -1 59 11 60 12 0 12 2 3 6 -10 4 -9 9 4 24 25 28 11
23 -15 -5z"/>
<path d="M1665 1830 c3 -5 8 -10 11 -10 2 0 4 5 4 10 0 6 -5 10 -11 10 -5 0
-7 -4 -4 -10z"/>
<path d="M1803 1389 c-68 -26 -137 -102 -158 -172 -19 -65 -19 -179 0 -244 20
-66 80 -134 145 -162 87 -37 230 -41 230 -6 0 21 20 19 21 -2 0 -11 3 -13 6
-5 2 6 9 10 14 6 5 -3 9 -3 9 0 0 6 -56 37 -65 36 -30 -1 -33 3 -36 43 l-4 42
33 -3 c26 -3 31 -1 26 11 -4 11 -20 16 -59 16 -74 0 -109 20 -130 76 -21 54
-15 137 13 175 24 32 105 61 143 50 19 -6 29 -4 32 3 3 8 12 5 28 -8 l24 -20
-23 26 c-12 14 -19 29 -15 32 3 4 1 7 -5 7 -23 0 -27 2 -44 17 -22 20 -25 93
-5 93 22 0 25 -8 17 -50 -7 -36 -5 -40 14 -39 11 0 15 3 8 6 -10 4 -10 8 -1
19 9 11 9 14 0 14 -8 0 -9 5 -2 18 16 31 -1 39 -84 40 -59 1 -94 -4 -132 -19z
m197 -109 c20 -16 22 -20 8 -20 -10 0 -18 5 -18 11 0 5 -5 7 -12 3 -6 -4 -8
-3 -4 4 3 5 0 13 -6 15 -7 3 -8 6 -3 6 6 0 21 -8 35 -19z m3 -463 c6 -15 -27
-17 -40 -2 -5 4 -3 5 4 1 6 -3 14 -2 18 4 8 13 12 13 18 -3z"/>
<path d="M2062 1378 c2 -7 -5 -12 -14 -12 -24 2 -23 -3 5 -17 12 -6 19 -8 15
-4 -4 5 -3 14 3 21 7 8 7 14 -1 19 -6 4 -9 1 -8 -7z"/>
<path d="M2048 1327 c7 -8 9 -16 6 -20 -3 -3 -1 -14 4 -24 9 -15 11 -13 10 14
-1 19 -7 34 -16 38 -12 4 -12 2 -4 -8z"/>
<path d="M2040 945 c0 -7 30 -13 34 -7 3 4 -4 9 -15 9 -10 1 -19 0 -19 -2z"/>
<path d="M2040 881 c0 -25 5 -41 15 -45 12 -4 15 4 15 39 0 33 -4 45 -15 45
-11 0 -15 -11 -15 -39z"/>
<path d="M1690 106 c0 -9 5 -16 10 -16 6 0 10 4 10 9 0 6 -4 13 -10 16 -5 3
-10 -1 -10 -9z"/>
</g>
</svg>
